<?xml version="1.0" standalone="no"?>
<!DOCTYPE svg PUBLIC "-//W3C//DTD SVG 20010904//EN"
 "http://www.w3.org/TR/2001/REC-SVG-20010904/DTD/svg10.dtd">
<svg version="1.0" xmlns="http://www.w3.org/2000/svg"
 width="1024.000000pt" height="1024.000000pt" viewBox="0 0 1024.000000 1024.000000"
 preserveAspectRatio="xMidYMid meet">

<g transform="translate(0.000000,1024.000000) scale(0.100000,-0.100000)"
fill="#000000" stroke="none">
<path d="M4581 8295 c-101 -19 -163 -40 -251 -86 -74 -39 -1310 -859 -1310
-869 0 -3 19 -18 43 -35 23 -16 161 -118 307 -226 661 -490 853 -629 866 -629
8 0 272 173 588 385 617 414 653 443 714 565 41 81 56 158 49 250 -7 85 -32
167 -72 231 -77 123 -326 321 -480 380 -125 49 -299 62 -454 34z"/>
<path d="M531 5963 c-1 -555 2 -1013 6 -1018 11 -15 80 -67 428 -322 165 -120
404 -295 530 -388 127 -92 385 -283 575 -423 190 -141 428 -316 530 -391 336
-244 670 -494 2055 -1531 1287 -964 1635 -1224 1712 -1278 l33 -23 122 84 c68
46 176 120 241 165 205 143 335 234 587 407 135 92 353 243 485 335 132 92
375 261 540 376 166 115 540 375 833 579 l532 370 0 1034 c0 936 -1 1033 -16
1027 -21 -8 -270 -176 -484 -326 -256 -180 -604 -422 -770 -535 -80 -54 -228
-158 -330 -230 -102 -72 -291 -205 -420 -295 -230 -160 -444 -313 -1040 -738
-288 -206 -296 -211 -319 -195 -49 32 -1060 786 -2147 1603 -1294 971 -2403
1799 -2739 2046 -666 488 -925 674 -938 674 -3 0 -5 -453 -6 -1007z"/>
<path d="M7112 6701 c-40 -10 -107 -35 -150 -56 -158 -79 -1605 -1078 -1585
-1095 34 -29 270 -208 468 -355 598 -446 779 -576 792 -571 17 7 106 67 268
181 72 50 207 145 300 210 853 594 944 665 1002 782 26 53 28 67 28 168 0 98
-3 116 -27 167 -47 100 -126 174 -403 372 -159 114 -296 187 -383 205 -78 16
-226 12 -310 -8z"/>
</g>
</svg>
